<?xml version="1.0" encoding="utf-8"?>
<!-- Generator: Adobe Illustrator 23.0.2, SVG Export Plug-In . SVG Version: 6.00 Build 0)  -->
<svg version="1.0" id="Layer_1" xmlns="http://www.w3.org/2000/svg" xmlns:xlink="http://www.w3.org/1999/xlink" x="0px" y="0px"
	 viewBox="0 0 1296 1728" style="enable-background:new 0 0 1296 1728;" xml:space="preserve">
<style type="text/css">
	.st0{fill:#721414;}
	.st1{fill:#FFFFFF;}
	.st2{stroke:#000000;stroke-miterlimit:10;}
	.st3{fill:none;stroke:#000000;stroke-width:2;stroke-miterlimit:10;}
</style>
<g>
	<rect x="336.6" y="1021.2" class="st0" width="684.5" height="26.3"/>
	<g>
		<g>
			<path class="st0" d="M351.2,1002.8c0.5,3.8,2.7,6.1,6.9,6.1c4.2,0,5.6-1.8,5.6-4.3c0-3.3-2.2-4.8-8.5-6.6c-11.5-3.1-15-7.5-15-14
				c0-9.3,7.6-14.1,17.3-14.1c11.4,0,17.4,5.5,17.9,14.1h-12c-0.4-2.9-1.7-5.3-5.8-5.3c-3.1,0-4.8,1.4-4.8,3.9
				c0,2.9,2.1,3.7,8.2,5.4c12.2,3.5,15.6,8.1,15.6,15.1c0,8.8-6.5,14.6-18.8,14.6c-11.4,0-18.1-5.7-18.7-14.9H351.2z"/>
			<path class="st0" d="M388.4,980.3h-11.9v-9.6H413v9.6h-11.9v36.6h-12.8V980.3z"/>
			<path class="st0" d="M413,1016.9v-12.3h11.1v12.3H413z"/>
			<path class="st0" d="M438.7,970.7h20.5c11.1,0,15.2,5.8,15.2,11.8c0,5.4-2.9,8.2-6,9.4c3.6,1.4,7.5,4.7,7.5,11
				c0,8.5-6.2,14-17,14h-20.2V970.7z M456.3,988.6c4,0,5.8-1.3,5.8-4.7c0-3.3-2.1-4.7-5.5-4.7H451v9.4H456.3z M451,1008.4h5.7
				c3.4,0,6.1-1.5,6.1-5.8c0-3.8-2.1-5.8-6.7-5.8H451V1008.4z"/>
			<path class="st0" d="M490,1007.6l-2.3,9.4h-12.5l12.9-46.2h17.1l13.5,46.2h-13.2l-2.6-9.4H490z M500.9,997.6
				c-1.9-6.9-3.5-13.6-4.4-18.4h-0.2c-0.9,5.1-2.5,11.8-4.2,18.4H500.9z"/>
			<path class="st0" d="M532.5,999.2v17.8h-12.4v-46.2h21.1c10.1,0,15.7,5.3,15.7,12.7c0,6.2-3.1,9.3-7.1,10.9
				c4.8,1.8,6.2,5.8,6.2,11.1v1.4c0,3.9,0.2,7.9,0.5,10.2h-12.2c-0.7-1.9-0.9-4.9-0.9-10.2v-1.3c0-4.8-1.6-6.3-6.5-6.3H532.5z
				 M532.5,990.1h5.4c3.8,0,6.5-1.4,6.5-5.4c0-3.6-2.4-5-5.7-5h-6.2V990.1z"/>
			<path class="st0" d="M560.7,970.7h20.5c11.1,0,15.2,5.8,15.2,11.8c0,5.4-2.9,8.2-6,9.4c3.6,1.4,7.5,4.7,7.5,11
				c0,8.5-6.2,14-17,14h-20.2V970.7z M578.3,988.6c4,0,5.8-1.3,5.8-4.7c0-3.3-2.1-4.7-5.5-4.7H573v9.4H578.3z M573,1008.4h5.7
				c3.4,0,6.1-1.5,6.1-5.8c0-3.8-2.1-5.8-6.7-5.8H573V1008.4z"/>
			<path class="st0" d="M612,1007.6l-2.3,9.4h-12.5l12.9-46.2h17.1l13.5,46.2h-13.2l-2.6-9.4H612z M622.9,997.6
				c-1.9-6.9-3.5-13.6-4.4-18.4h-0.2c-0.9,5.1-2.5,11.8-4.2,18.4H622.9z"/>
			<path class="st0" d="M654.6,999.2v17.8h-12.4v-46.2h21.1c10.1,0,15.7,5.3,15.7,12.7c0,6.2-3.1,9.3-7.1,10.9
				c4.8,1.8,6.2,5.8,6.2,11.1v1.4c0,3.9,0.2,7.9,0.5,10.2h-12.2c-0.7-1.9-0.9-4.9-0.9-10.2v-1.3c0-4.8-1.6-6.3-6.5-6.3H654.6z
				 M654.6,990.1h5.4c3.8,0,6.5-1.4,6.5-5.4c0-3.6-2.4-5-5.7-5h-6.2V990.1z"/>
			<path class="st0" d="M693.3,1007.6l-2.3,9.4h-12.5l12.9-46.2h17.1l13.5,46.2h-13.2l-2.6-9.4H693.3z M704.2,997.6
				c-1.9-6.9-3.5-13.6-4.4-18.4h-0.2c-0.9,5.1-2.5,11.8-4.2,18.4H704.2z"/>
			<path class="st0" d="M734.6,970.7h20.5c11.1,0,15.2,5.8,15.2,11.8c0,5.4-2.9,8.2-6,9.4c3.6,1.4,7.5,4.7,7.5,11
				c0,8.5-6.2,14-17,14h-20.2V970.7z M752.2,988.6c4,0,5.8-1.3,5.8-4.7c0-3.3-2.1-4.7-5.5-4.7h-5.5v9.4H752.2z M746.9,1008.4h5.7
				c3.4,0,6.1-1.5,6.1-5.8c0-3.8-2.1-5.8-6.7-5.8h-5.1V1008.4z"/>
			<path class="st0" d="M787.5,970.7v30c0,4.1,1.1,7.8,6.5,7.8c5.3,0,6.3-3.6,6.3-7.8v-30h12.8v29.5c0,10.8-5.4,17.6-19.4,17.6
				c-13.9,0-19-6.9-19-17.6v-29.5H787.5z"/>
			<path class="st0" d="M830.8,970.7v46.2h-12.7v-46.2H830.8z"/>
			<path class="st0" d="M836.2,970.7H849v36.6h19.5l-1.3,9.6h-31V970.7z"/>
			<path class="st0" d="M870.2,970.7h17.9c15,0,22.3,8.7,22.3,22.3c0,14.8-8,23.9-22.5,23.9h-17.6V970.7z M883,1007.8h4.2
				c6.7,0,9.8-4.5,9.8-14.6c0-8.7-2.6-13.3-9.7-13.3H883V1007.8z"/>
			<path class="st0" d="M945.6,997.9h-19.4v9.4h21.6l-1.4,9.6H914v-46.2h32.4v9.6h-20.2v8h19.4V997.9z"/>
			<path class="st0" d="M962.8,999.2v17.8h-12.4v-46.2h21.1c10.1,0,15.7,5.3,15.7,12.7c0,6.2-3.1,9.3-7.1,10.9
				c4.8,1.8,6.2,5.8,6.2,11.1v1.4c0,3.9,0.2,7.9,0.5,10.2h-12.2c-0.7-1.9-0.9-4.9-0.9-10.2v-1.3c0-4.8-1.6-6.3-6.5-6.3H962.8z
				 M962.8,990.1h5.4c3.8,0,6.5-1.4,6.5-5.4c0-3.6-2.4-5-5.7-5h-6.2V990.1z"/>
			<path class="st0" d="M1000.5,1002.8c0.5,3.8,2.7,6.1,6.9,6.1c4.2,0,5.6-1.8,5.6-4.3c0-3.3-2.2-4.8-8.5-6.6
				c-11.5-3.1-15-7.5-15-14c0-9.3,7.6-14.1,17.3-14.1c11.4,0,17.4,5.5,17.9,14.1h-12c-0.4-2.9-1.7-5.3-5.8-5.3
				c-3.1,0-4.8,1.4-4.8,3.9c0,2.9,2.1,3.7,8.2,5.4c12.2,3.5,15.6,8.1,15.6,15.1c0,8.8-6.5,14.6-18.8,14.6
				c-11.4,0-18.1-5.7-18.7-14.9H1000.5z"/>
		</g>
	</g>
	<g>
		<g>
			<path class="st1" d="M359.8,1037.6c-0.5,3.8-3,6.8-8.3,6.8c-6.5,0-8.7-4.6-8.7-10c0-5.5,2.8-10.1,8.9-10.1c5.9,0,7.8,3.7,8,6.7
				h-5.2c-0.3-1.5-0.8-2.8-2.8-2.8c-2.5,0-3.3,2.6-3.3,6.1c0,3.6,0.8,6.1,3.3,6.1c2.1,0,2.7-1.5,2.9-2.9H359.8z"/>
			<path class="st1" d="M374.5,1024.7v19.3h-5.3v-19.3H374.5z"/>
			<path class="st1" d="M388.7,1044l-5.9-19.3h5.6c0.2,0.8,1.9,7.3,2.1,8.1c0.6,2.5,1.1,4.6,1.5,6.6h0.1c0.4-2,0.9-4.2,1.6-6.5
				c0.2-0.8,2-7.4,2.2-8.2h5.4L395,1044H388.7z"/>
			<path class="st1" d="M414.9,1024.7v19.3h-5.3v-19.3H414.9z"/>
			<path class="st1" d="M425.3,1024.7h5.3v15.3h8.2l-0.5,4h-13V1024.7z"/>
			<path class="st1" d="M473.5,1036.1h-8.1v4h9l-0.6,4h-13.6v-19.3h13.6v4h-8.4v3.3h8.1V1036.1z"/>
			<path class="st1" d="M483.6,1044v-19.3h6.5c4.1,9.8,4.9,12,5.2,12.8h0.1c-0.2-2.3-0.3-5.6-0.3-8.6v-4.3h4.9v19.3h-6.2
				c-4.5-10.9-5.1-12.7-5.3-13.4h-0.1c0.2,2.4,0.2,5.7,0.2,9.1v4.3H483.6z"/>
			<path class="st1" d="M526.7,1044H523c-0.1-0.5-0.3-1.4-0.3-1.9c-1,1.7-2.9,2.3-5.2,2.3c-5.6,0-8-4.6-8-9.8
				c0-5.8,3.2-10.2,9.2-10.2c5.4,0,7.7,2.9,8,6.1h-5.2c-0.3-1-0.8-2.2-3-2.2c-2.6,0-3.5,2.5-3.5,6.2c0,3.5,1,6,3.6,6
				c2.2,0,2.9-1.6,2.9-3.5v-0.1h-3.1v-3.9h8.4C526.7,1038.3,526.7,1043.6,526.7,1044z"/>
			<path class="st1" d="M542.1,1024.7v19.3h-5.3v-19.3H542.1z"/>
			<path class="st1" d="M552.4,1044v-19.3h6.5c4.1,9.8,4.9,12,5.2,12.8h0.1c-0.2-2.3-0.3-5.6-0.3-8.6v-4.3h4.9v19.3h-6.2
				c-4.5-10.9-5.1-12.7-5.3-13.4h-0.1c0.2,2.4,0.2,5.7,0.2,9.1v4.3H552.4z"/>
			<path class="st1" d="M592.3,1036.1h-8.1v4h9l-0.6,4h-13.6v-19.3h13.6v4h-8.4v3.3h8.1V1036.1z"/>
			<path class="st1" d="M615.6,1036.1h-8.1v4h9l-0.6,4h-13.6v-19.3h13.6v4h-8.4v3.3h8.1V1036.1z"/>
			<path class="st1" d="M630.8,1036.6v7.4h-5.2v-19.3h8.8c4.2,0,6.6,2.2,6.6,5.3c0,2.6-1.3,3.9-3,4.6c2,0.8,2.6,2.4,2.6,4.6v0.6
				c0,1.6,0.1,3.3,0.2,4.2h-5.1c-0.3-0.8-0.4-2-0.4-4.3v-0.5c0-2-0.7-2.6-2.7-2.6H630.8z M630.8,1032.8h2.2c1.6,0,2.7-0.6,2.7-2.2
				c0-1.5-1-2.1-2.4-2.1h-2.6V1032.8z"/>
			<path class="st1" d="M656,1024.7v19.3h-5.3v-19.3H656z"/>
			<path class="st1" d="M666.3,1044v-19.3h6.5c4.1,9.8,4.9,12,5.2,12.8h0.1c-0.2-2.3-0.3-5.6-0.3-8.6v-4.3h4.9v19.3h-6.2
				c-4.5-10.9-5.1-12.7-5.3-13.4H671c0.2,2.4,0.2,5.7,0.2,9.1v4.3H666.3z"/>
			<path class="st1" d="M709.5,1044h-3.8c-0.1-0.5-0.3-1.4-0.3-1.9c-1,1.7-2.9,2.3-5.2,2.3c-5.6,0-8-4.6-8-9.8
				c0-5.8,3.2-10.2,9.2-10.2c5.4,0,7.7,2.9,8,6.1h-5.2c-0.3-1-0.8-2.2-3-2.2c-2.6,0-3.5,2.5-3.5,6.2c0,3.5,1,6,3.6,6
				c2.2,0,2.9-1.6,2.9-3.5v-0.1h-3.1v-3.9h8.4C709.5,1038.3,709.5,1043.6,709.5,1044z"/>
			<path class="st1" d="M748.5,1037.6c-0.5,3.8-3,6.8-8.3,6.8c-6.5,0-8.7-4.6-8.7-10c0-5.5,2.8-10.1,8.9-10.1c5.9,0,7.8,3.7,8,6.7
				h-5.2c-0.3-1.5-0.8-2.8-2.8-2.8c-2.5,0-3.3,2.6-3.3,6.1c0,3.6,0.8,6.1,3.3,6.1c2.1,0,2.7-1.5,2.9-2.9H748.5z"/>
			<path class="st1" d="M775.3,1034.3c0,5.7-2.7,10.1-9.3,10.1c-6.3,0-8.9-4.5-8.9-10.2c0-5,2.7-9.9,9.2-9.9
				C772.6,1024.4,775.3,1029,775.3,1034.3z M762.6,1034.2c0,3.7,1.1,6.3,3.6,6.3c2.7,0,3.6-2.4,3.6-6.3c0-3.4-0.8-6-3.6-6
				C763.6,1028.3,762.6,1030.6,762.6,1034.2z"/>
			<path class="st1" d="M784.9,1044v-19.3h6.5c4.1,9.8,4.9,12,5.2,12.8h0.1c-0.2-2.3-0.3-5.6-0.3-8.6v-4.3h4.9v19.3h-6.2
				c-4.5-10.9-5.1-12.7-5.3-13.4h-0.1c0.2,2.4,0.2,5.7,0.2,9.1v4.3H784.9z"/>
			<path class="st1" d="M815.5,1038.1c0.2,1.6,1.1,2.5,2.9,2.5c1.8,0,2.3-0.7,2.3-1.8c0-1.4-0.9-2-3.6-2.8c-4.8-1.3-6.3-3.1-6.3-5.8
				c0-3.9,3.2-5.9,7.2-5.9c4.8,0,7.3,2.3,7.5,5.9h-5c-0.2-1.2-0.7-2.2-2.4-2.2c-1.3,0-2,0.6-2,1.6c0,1.2,0.9,1.5,3.4,2.3
				c5.1,1.5,6.5,3.4,6.5,6.3c0,3.7-2.7,6.1-7.9,6.1c-4.8,0-7.6-2.4-7.8-6.3H815.5z"/>
			<path class="st1" d="M839.1,1028.7h-5v-4h15.3v4h-5v15.3h-5.3V1028.7z"/>
			<path class="st1" d="M863.6,1036.6v7.4h-5.2v-19.3h8.8c4.2,0,6.6,2.2,6.6,5.3c0,2.6-1.3,3.9-3,4.6c2,0.8,2.6,2.4,2.6,4.6v0.6
				c0,1.6,0.1,3.3,0.2,4.2h-5.1c-0.3-0.8-0.4-2-0.4-4.3v-0.5c0-2-0.7-2.6-2.7-2.6H863.6z M863.6,1032.8h2.2c1.6,0,2.7-0.6,2.7-2.2
				c0-1.5-1-2.1-2.4-2.1h-2.6V1032.8z"/>
			<path class="st1" d="M888.5,1024.7v12.5c0,1.7,0.5,3.3,2.7,3.3c2.2,0,2.7-1.5,2.7-3.3v-12.5h5.4v12.4c0,4.5-2.3,7.3-8.1,7.3
				c-5.8,0-8-2.9-8-7.4v-12.3H888.5z"/>
			<path class="st1" d="M925.6,1037.6c-0.5,3.8-3,6.8-8.3,6.8c-6.5,0-8.7-4.6-8.7-10c0-5.5,2.8-10.1,8.9-10.1c5.9,0,7.8,3.7,8,6.7
				h-5.2c-0.3-1.5-0.8-2.8-2.8-2.8c-2.5,0-3.3,2.6-3.3,6.1c0,3.6,0.8,6.1,3.3,6.1c2.1,0,2.7-1.5,2.9-2.9H925.6z"/>
			<path class="st1" d="M938.6,1028.7h-5v-4h15.3v4h-5v15.3h-5.3V1028.7z"/>
			<path class="st1" d="M963.2,1024.7v19.3h-5.3v-19.3H963.2z"/>
			<path class="st1" d="M990.9,1034.3c0,5.7-2.7,10.1-9.3,10.1c-6.3,0-8.9-4.5-8.9-10.2c0-5,2.7-9.9,9.2-9.9
				C988.2,1024.4,990.9,1029,990.9,1034.3z M978.3,1034.2c0,3.7,1.1,6.3,3.6,6.3c2.7,0,3.6-2.4,3.6-6.3c0-3.4-0.8-6-3.6-6
				C979.2,1028.3,978.3,1030.6,978.3,1034.2z"/>
			<path class="st1" d="M1000.5,1044v-19.3h6.5c4.1,9.8,4.9,12,5.2,12.8h0.1c-0.2-2.3-0.3-5.6-0.3-8.6v-4.3h4.9v19.3h-6.2
				c-4.5-10.9-5.1-12.7-5.3-13.4h-0.1c0.2,2.4,0.2,5.7,0.2,9.1v4.3H1000.5z"/>
		</g>
	</g>
</g>
<g>
	<g>
		<g>
			<g>
				<polygon class="st2" points="703.3,740.5 767.7,772 767,945.6 761.5,944.8 762.7,774 703.3,745.1 				"/>
				<polygon class="st2" points="771,808.5 816.4,828.6 816.6,952.3 812,951.6 813.4,831.7 771,813.5 				"/>
				<polygon class="st2" points="561.5,744.2 561.5,796.3 579.3,803.1 579.1,933.1 560,930.6 561.5,796.4 512,814.9 499.5,934.2 
					561.5,934.2 596.6,935.6 596.6,715 				"/>
				<polygon class="st2" points="703.3,767.8 754.3,788.7 754.3,796 703.3,772.8 				"/>
				<polygon class="st2" points="754.3,813.2 754.3,822.9 703.3,799.5 703.3,794.2 				"/>
				<path class="st2" d="M633.6,766.5v38.8l-2.3,0.6l-4.1-88.8l-4.2-3.5l3.5,93.6l-1.9,0.5l-4.8-98.7l-9.8-4.6v103.9l-0.8,3.4
					l-3.6,1.2l-3.8,122.7H625h17.7l52.8,3.4V741.3L633.6,766.5z M646.2,910V804.9l16.8,7.9l1.6,99.6L646.2,910z"/>
				<g>
					<polygon class="st3" points="721.8,680.9 613.1,726.4 613.1,733.8 621.6,740.5 728.8,688.9 					"/>
					<polygon class="st3" points="729.3,722.8 729.4,689.4 723.8,723.5 723.8,728.9 729.5,728.1 731.6,722.7 					"/>
				</g>
			</g>
			<polygon points="728.8,687 704,687 704,687.7 702.7,688.2 706.7,697.9 680.1,697.9 680.1,698.2 678.6,698.9 682.4,708.3 
				653.8,708.3 653.8,710.7 654.2,710.7 658.2,720.5 626.5,720.5 626.5,722.9 660.7,722.9 660.7,720.5 660.6,720.5 656.6,710.7 
				683.4,710.7 683.4,710.8 683.6,710.7 684.7,710.7 684.7,710.2 685.5,709.9 681.6,700.3 707.2,700.3 707.2,699 707.2,699.1 
				709.2,698.2 705.7,689.4 728.8,689.4 			"/>
		</g>
		<path class="st1" d="M526.6,948.6c0,0,26.7-5.6,31.7-5.3s-8.3-9.1-8-13.8c0.1-2.1-16.4-1.2-16.4-1.2l4.7-25.3l10.4-2.1l7.4-22.4
			l41.2-4.5l5.3-22.2l-5.3-7.4l4.3-3.9l40.8-5.9l22.4,9.2l-7.8,5.9V862l30.4-19.6c0,0-0.6-7.4,3.3-8.9c7.3-2.8,10.3,4.2,10.3,4.2
			s17.6-7.5,21-7.5s5.9-5.4,5.9-5.4s10.3-8.8,14.7,0c4.3,8.8,4.9,16.6,4.9,16.6l4.5,4.1l0.4,7.2l1.8,21.6l9.8,2l5,4l10.5,8.6
			c0,0,6.1,19.7,5,26.7c-1.1,7-0.8,19-1.6,19c-0.8,0-37.1-4.6-37.1-4.6s0.4-5.9-8.2-13c-8.7-7.1-5-25.2-5-25.2l-9.7-30.8l-6.7-3.2
			l-15.6,14.3L686,884.9l3.7,7.9c0,0,12.5,2.2,16,6.6c3.5,4.4,9.6,30.3,5.2,35.9c4.7,3.9,20.7,15.6,20.7,15.6h-32.6l-170.1-1.4
			L526.6,948.6z"/>
		<path class="st1" d="M730.6,928.6"/>
		<path d="M502.1,945.5"/>
		<path d="M711.3,957.1c16.7,2.5,15.4,1.6,15.4,1.6s1.8-1.8-12.8-4l-18-2.4l-6.2,1.4L711.3,957.1z"/>
		<path d="M755.7,964.6c13.7,2.6,12.7,1.8,12.7,1.8s1.6-1.3-10.4-3.6l-15.2-2.7l-3.9,1.3L755.7,964.6z"/>
		<path d="M513.1,944.7c-11.1-0.9-11-1-11-1s-1-1.1,8.8-0.3l20,1l-2.4,1L513.1,944.7z"/>
		<path d="M485.4,942.4c-9.1-0.5-9-0.6-9-0.6s-0.8-0.9,7.2-0.4l9.7,0.5l-1.5,0.9L485.4,942.4z"/>
		<path d="M491.7,934.9c0,0,211.1-6.1,332.1,22.6c15.4,3.6,38.2,11.7,29.7,10.7c-16.1-1.9-27.8-6.3-78.4-15
			C687.9,938.2,491.7,934.9,491.7,934.9z"/>
		<g>
			<path d="M754.4,919l0.7-0.4l0.8,7.1h2.7l-0.4-7.2l1.3-0.1l0.8,7.3h2.7l-0.4-7.4l1.3-0.1l0.9,7.5h2.7l-0.4-7.6l1.3-0.1l0.9,7.6
				h2.7l-0.4-7.8l1.7-0.1l0.9,7.9h2.7l-0.5-8l1.3-0.1l0.9,8h2.7l-0.9-15.1l-0.8,0c0.2-6.5-4.3-19.1-4.3-19.1l-7.6-4.1l-9.1,0.2
				c0.1-0.7,0.1-1.4-0.1-2.3c-0.5-1.7-2.9-1.8-4.7-1.7c-1.8-4.4-3.9-10.2-5-15.4c-1-4.7-2-10.1-2.9-15.5l0.9-6.6l-2.7-3.7
				c-0.4-2.4-0.9-4.7-1.4-6.8c-2.1-9.4-7.2-8.2-7.2-8.2l-4.2,2.9l-0.4-2.9l-2.6,1.1l0.7,4.6l-5,1.7c0,0-0.8-1.9-1.6-1.9
				c-3.6,0-22.3,7.6-22.3,7.6l-4.2-1.2c0,0-2.3-0.9-2.6,1.2c-0.4,2.1-1.3,4.2-1.3,4.2l-1.4,1.7l0.2,0.7l-36.3,25.2l-0.2-23.5
				l2.4-2.6l-14.2-5.7l-38.5,4.5l1.1,1l0.8,1.8l1.5,1.7L600,883l-36.9,2.5l-8.9,24.5l3.9,0l6.6-22.6l36.2-2.4l7.8-33.9l21.8-3.1
				l-0.2,2.7l-18.2,4.2l-3.9,26.2h19.5l-1.3,14.8l-0.2,0c-0.4,0-9.8,0-10.2,0c-0.3,0-0.6,0-0.9,0h-2.5c-3.3,0.1-1.5,0.2-4.9,0.4
				c-0.4,0-1.4,0.1-2.4,0.3h-4.3l-1.9,5.3h2.7c0.3,1.9,0.6,3.7,0.9,5.9c-3.1,0-5.9,0.1-8.6-0.1c-0.7,0-1.6-1-1.9-1.7
				c-1.2-2.8-2.2-5.7-3.5-8.4c-0.4-0.8-1.7-1.8-2.5-1.7c-6,0.3-11.9,0.8-17.9,1.4c-1,0.1-2.2,1.2-2.6,2.1c-1,2-1.8,4.2-2.4,6.4
				c-0.5,2.1-1.6,2.9-3.4,2.7l-0.3,1h-0.6l-16.1,1.2l-0.4,9.7h8.1c0.3,0,0.6,0,0.9,0c3.5,0,7.4-0.4,9.1,3.1
				c-0.3,1.4-0.9,2.8-0.6,3.1c2.2,2.2,1.5,3.9-0.9,5.5c2.4,1.7,3.6,3.5,2,5.9c2,2.4,3.8,4.7,5.8,7.1c-13,1-25.8,0.7-38.3,4.1
				c1.3,0.9,2.5,1.4,3.9,1.5c9.9,0.9,19.7,2,29.6,2.4c43.9,1.8,87.9,1.8,131.9,0c9.9-0.4,19.7-1.5,29.6-2.4c1.4-0.1,2.7-0.8,4-1.2
				c0-0.3-0.1-0.6-0.1-0.9c-11.1-2.7-22.5-2.4-34.2-3.8c10.8-5.7,12.3-15.4,11.3-25.8c-0.9-9.7-7.1-18-14.4-18
				c-0.2-1.4-0.5-3.3-1.2-3.7c-2.1-1.2-3-2.6-4.8-2.6l-1.8-5.7l-6.3-0.5l17.8-22l21.5-15.8l16.1,0.8l5.4,37.4l1.8,5.3
				c-0.6,0.5-1.1,1.1-1.3,1.7c-0.8,2.2-0.3,12.1,2.5,13.6c6.2,3.4,6.4,8.3,6.4,8.3l6.2,1L754.4,919z M620.2,944.2
				c-10.9,0-21.7,0-33.2,0c1.4-0.7,2.6-1.1,3.5-1.9c1.5-1.4,2.9-2.9,4.3-4.5c1.9-2.3,2.3-6.2,6.6-6.1c1.8,5.9,4.7,8.7,14.4,10
				c1.6,0.2,3.1,0.8,4.7,1.2C620.4,943.4,620.3,943.8,620.2,944.2z M699.2,937.1c-0.5-3.2-5.8-3.9-3.7-8.5c1.5,1.7,2.8,3.1,4.3,4.6
				c0.7-0.4,1.6-0.7,2.4-1.1c0.2,0.2,0.5,0.4,0.7,0.7C701.7,934.2,700.4,935.7,699.2,937.1z M703.8,925.2c-1,2.1-2,4.2-2.7,5.8
				c-1.6-1.9-3.5-3.8-5-6c-0.7-1-0.6-2.4-0.9-3.7c0.3-0.1,0.6-0.3,0.9-0.4c1.4,1.7,2.8,3.3,4.4,5.1c0.8-0.4,1.7-0.9,2.6-1.4
				C703.3,924.9,703.5,925.1,703.8,925.2z M702.4,919.5c-0.3,1.3-0.5,2.4-0.8,3.6c-1.1-3.8-7-3.8-7.1-9.3
				C697.5,915.9,700,917.7,702.4,919.5z M693.6,935.6c1.4,1.2,2.6,2.3,4.3,3.7c-0.8,0.5-1.8,1.1-3.1,2
				C694,939.1,691.4,937.8,693.6,935.6z M638.6,884.9l1.7-20l12.8-4.3l-0.1,24.9L638.6,884.9z M636,884.8l-3.1-1.9l-0.2-15.4
				l5.4-1.8L636,884.8z M612.6,877.7l0.9-21l15.5,8.7l-1.1,12.3H612.6z M654,890.5l16.7,0.4l-2.5,3h-6.5l-1.5,1.3l-6.8,0.1
				L654,890.5z M651.9,907.3c1.2,0.9,2.8,1.1,4.2,1.7c0.4-0.2,0.8-0.5,1.2-0.7c-0.4,2.3-0.8,4.6-1.2,6.9c-2.5-2.8-4.5-5.9-7.2-7.7
				c-0.5-0.3-0.9-0.5-1.4-0.8c1.1-0.1,2.2-0.1,3.4-0.2C651.2,906.8,651.5,907.1,651.9,907.3z M652.2,906.8c-0.1-0.1-0.1-0.2-0.2-0.3
				c0.1,0,0.2,0,0.3,0C652.3,906.6,652.3,906.7,652.2,906.8z M648.7,901.5c0.7,0.4,1.5,1.1,2.3,1.2c2.8,0.3,3.4,0.3,2.3,2.3
				l-2.3,0.2c-4.2-4.5-10.2-3.8-15.6-5C639.6,898.4,644.4,899,648.7,901.5z M639.7,903.1c3.3-0.1,6.3,0.8,9.1,2.3l-4.2,0.3
				c-1.8-0.6-3.6-1-5.3-1.6C639.4,903.8,639.6,903.4,639.7,903.1z M654.2,915.9c2.7,2.8,2.7,2.8,4.8-0.6c1.8,2.1,1.3,4-1.8,9
				c-1.6-2.7-2.9-5.9-5.2-8.2c-2.2-2.3-5.4-3.7-7.8-6C648.5,910.4,651.5,913,654.2,915.9z M654.8,939.4c-3.3-3.4-6.3-6.3-9.1-9.4
				c-0.6-0.7-0.5-2-0.8-3c0.4-0.2,0.8-0.5,1.2-0.7c2.4,2.9,4.7,6,7.4,8.6C655,936.3,656.1,937.5,654.8,939.4z M652.6,925.8
				c-1.9-2.6-4.8-4.5-6.9-7.1c5.8,0.6,8.3,4.8,11.1,10.2c1.6-2.1,2.7-3.7,4.4-6c0.9,5.3-2.8,8.1-4.5,12.7
				C655.1,931.8,654.4,928.4,652.6,925.8z M657.7,944.5c0.9-3,2-5.6,2.5-8.3c0.7-4.6,4.2-4,6.3-4.3c1.4,1.8,2.6,2.9,3.4,4.3
				c0.9,1.5,1.2,3.4,2.1,4.9c0.8,1.4,2.1,2.5,2.9,3.5C669.3,944.5,663.5,944.5,657.7,944.5z M681.2,891.3l1.1,3.7l-6.4,0.1l1-1h-5
				l2.4-2.9L681.2,891.3z M672.7,888.5l-4.3-0.3l-1-0.1H665l19.9-14.6L672.7,888.5z M708.4,849.2l-4.9-2.4l-2.7,1.8l0.5,1
				c-15.7,12.7-31.3,25.4-47,38.1l0.3-2.1l-0.1-10.7l42.5-28.9l20.5-2.3L708.4,849.2z M710.9,842.8c5-1.7,12.5-4.2,13.9-4.8
				c0.6-0.3,0.1-2.3,0.1-2.3l4.3-1.3l0.7,4.8l-7.4,2.4L710.9,842.8z M729.6,850l1.9,0.1l0.1,0.4C730.9,850.3,730.3,850.2,729.6,850z
				 M738.5,883.5l-4.1-30.6c2.9,7.4,6.9,32.7,8,39.4c-0.4,0.2-0.9,0.4-1.3,0.6L738.5,883.5z M743.2,907.6c-0.9,0-3-2.7-3-5.2
				c0-2.4-0.3-3.2,0.6-3.2c0.9,0,2.3,1.4,2.6,3.8C743.7,905.4,744.1,907.6,743.2,907.6z M753.6,917.3l-3.4-16.4l-0.3-0.8l-3.9-5.5
				l0.5-0.4l4,5.7l3.9,17.6L753.6,917.3z"/>
		</g>
		<g>
			<path d="M814,1000.7c0.9,0.1,1.2,0,1-0.3L814,1000.7z"/>
			<path d="M665,968.3c-111.4-20.7-215.3-17.5-215.3-17.5s110.6,2.3,202.5,17.5H665z"/>
		</g>
	</g>
</g>
</svg>
